<?xml version="1.0" encoding="UTF-8"?>
<!DOCTYPE svg PUBLIC "-//W3C//DTD SVG 1.1//EN" "http://www.w3.org/Graphics/SVG/1.1/DTD/svg11.dtd">
<svg xmlns="http://www.w3.org/2000/svg" version="1.1" width="508px" height="508px" style="shape-rendering:geometricPrecision; text-rendering:geometricPrecision; image-rendering:optimizeQuality; fill-rule:evenodd; clip-rule:evenodd" xmlns:xlink="http://www.w3.org/1999/xlink">
<g><path style="opacity:0.967" fill="#fcfcfc" d="M 266.5,20.5 C 266.232,22.099 266.566,23.4324 267.5,24.5C 267.85,36.0363 268.85,47.3697 270.5,58.5C 270.185,62.3714 270.518,66.0381 271.5,69.5C 271.392,74.8699 271.725,80.2032 272.5,85.5C 277.484,86.2751 282.484,86.9418 287.5,87.5C 291.615,88.9434 295.948,89.9434 300.5,90.5C 301.568,91.4345 302.901,91.7678 304.5,91.5C 309.617,93.537 314.95,95.2036 320.5,96.5C 321.209,97.404 322.209,97.7373 323.5,97.5C 324.78,98.9313 326.447,99.5979 328.5,99.5C 329.93,100.537 331.597,101.204 333.5,101.5C 336.979,103.403 340.646,105.07 344.5,106.5C 345.937,107.725 347.604,108.725 349.5,109.5C 349.833,108.833 350.167,108.167 350.5,107.5C 351.251,108.376 351.751,109.376 352,110.5C 354.466,104.576 356.632,98.5763 358.5,92.5C 362.07,85.1339 365.07,77.4673 367.5,69.5C 370.706,59.629 377.04,52.629 386.5,48.5C 393.34,47.1991 400.007,47.8657 406.5,50.5C 407.436,51.9744 408.77,52.9744 410.5,53.5C 412.167,55.8333 414.167,57.8333 416.5,59.5C 417.264,62.0177 418.264,64.351 419.5,66.5C 419.833,69.8333 420.167,73.1667 420.5,76.5C 419.549,77.9187 419.216,79.5853 419.5,81.5C 418.596,82.209 418.263,83.209 418.5,84.5C 417.662,84.8417 417.328,85.5084 417.5,86.5C 416.596,87.209 416.263,88.209 416.5,89.5C 415.069,90.7804 414.402,92.4471 414.5,94.5C 413.069,95.7804 412.402,97.4471 412.5,99.5C 411.596,100.209 411.263,101.209 411.5,102.5C 410.662,102.842 410.328,103.508 410.5,104.5C 409.596,105.209 409.263,106.209 409.5,107.5C 408.662,107.842 408.328,108.508 408.5,109.5C 407.596,110.209 407.263,111.209 407.5,112.5C 406.069,113.78 405.402,115.447 405.5,117.5C 404.069,118.78 403.402,120.447 403.5,122.5C 402.596,123.209 402.263,124.209 402.5,125.5C 401.662,125.842 401.328,126.508 401.5,127.5C 400.596,128.209 400.263,129.209 400.5,130.5C 399.662,130.842 399.328,131.508 399.5,132.5C 398.596,133.209 398.263,134.209 398.5,135.5C 397.733,136.172 397.066,137.005 396.5,138C 425.105,160.77 450.438,186.604 472.5,215.5C 480.507,227.172 488.507,238.838 496.5,250.5C 497.669,253.511 499.336,256.178 501.5,258.5C 502.11,260.434 503.11,262.101 504.5,263.5C 505.264,266.018 506.264,268.351 507.5,270.5C 507.5,274.833 507.5,279.167 507.5,283.5C 506.596,284.209 506.263,285.209 506.5,286.5C 505.662,286.842 505.328,287.508 505.5,288.5C 504.662,288.842 504.328,289.508 504.5,290.5C 503.662,290.842 503.328,291.508 503.5,292.5C 502.662,292.842 502.328,293.508 502.5,294.5C 501.662,294.842 501.328,295.508 501.5,296.5C 500.662,296.842 500.328,297.508 500.5,298.5C 499.662,298.842 499.328,299.508 499.5,300.5C 498.833,300.5 498.5,300.833 498.5,301.5C 497.662,301.842 497.328,302.508 497.5,303.5C 496.662,303.842 496.328,304.508 496.5,305.5C 495.094,305.973 494.427,306.973 494.5,308.5C 493.662,308.842 493.328,309.508 493.5,310.5C 492.833,310.5 492.5,310.833 492.5,311.5C 491.662,311.842 491.328,312.508 491.5,313.5C 490.833,313.5 490.5,313.833 490.5,314.5C 489.662,314.842 489.328,315.508 489.5,316.5C 488.833,316.5 488.5,316.833 488.5,317.5C 487.662,317.842 487.328,318.508 487.5,319.5C 486.833,319.5 486.5,319.833 486.5,320.5C 485.662,320.842 485.328,321.508 485.5,322.5C 484.833,322.5 484.5,322.833 484.5,323.5C 483.094,323.973 482.427,324.973 482.5,326.5C 480.457,327.579 479.124,329.246 478.5,331.5C 477.094,331.973 476.427,332.973 476.5,334.5C 475.833,334.5 475.5,334.833 475.5,335.5C 474.833,335.5 474.5,335.833 474.5,336.5C 472.457,337.579 471.124,339.246 470.5,341.5C 469.833,341.5 469.5,341.833 469.5,342.5C 468.833,342.5 468.5,342.833 468.5,343.5C 466.11,344.891 464.443,346.891 463.5,349.5C 462.833,349.5 462.5,349.833 462.5,350.5C 461.833,350.5 461.5,350.833 461.5,351.5C 460.833,351.5 460.5,351.833 460.5,352.5C 459.833,352.5 459.5,352.833 459.5,353.5C 458.833,353.5 458.5,353.833 458.5,354.5C 457.833,354.5 457.5,354.833 457.5,355.5C 456.833,355.5 456.5,355.833 456.5,356.5C 455.833,356.5 455.5,356.833 455.5,357.5C 454.833,357.5 454.5,357.833 454.5,358.5C 453.833,358.5 453.5,358.833 453.5,359.5C 452.833,359.5 452.5,359.833 452.5,360.5C 449.08,361.745 448.747,363.412 451.5,365.5C 451.66,367.153 452.326,368.486 453.5,369.5C 455.418,374.343 458.084,378.677 461.5,382.5C 461.66,384.153 462.326,385.486 463.5,386.5C 465.186,389.872 466.853,393.205 468.5,396.5C 468.676,401.88 468.342,407.213 467.5,412.5C 466.326,413.514 465.66,414.847 465.5,416.5C 464.662,416.842 464.328,417.508 464.5,418.5C 463.833,418.5 463.5,418.833 463.5,419.5C 462.833,419.5 462.5,419.833 462.5,420.5C 461.833,420.5 461.5,420.833 461.5,421.5C 460.833,421.5 460.5,421.833 460.5,422.5C 459.833,422.5 459.5,422.833 459.5,423.5C 458.833,423.5 458.5,423.833 458.5,424.5C 456.973,424.427 455.973,425.094 455.5,426.5C 454.508,426.328 453.842,426.662 453.5,427.5C 448.609,428.903 443.609,429.57 438.5,429.5C 437.432,428.566 436.099,428.232 434.5,428.5C 429.958,426.301 425.958,423.301 422.5,419.5C 420.735,416.291 418.735,413.291 416.5,410.5C 416.25,408.326 415.25,406.659 413.5,405.5C 413.25,403.326 412.25,401.659 410.5,400.5C 409.482,394.679 407.149,393.679 403.5,397.5C 402.508,397.328 401.842,397.662 401.5,398.5C 399.973,398.427 398.973,399.094 398.5,400.5C 397.508,400.328 396.842,400.662 396.5,401.5C 395.508,401.328 394.842,401.662 394.5,402.5C 392.973,402.427 391.973,403.094 391.5,404.5C 390.508,404.328 389.842,404.662 389.5,405.5C 388.508,405.328 387.842,405.662 387.5,406.5C 386.508,406.328 385.842,406.662 385.5,407.5C 384.508,407.328 383.842,407.662 383.5,408.5C 382.508,408.328 381.842,408.662 381.5,409.5C 380.508,409.328 379.842,409.662 379.5,410.5C 378.508,410.328 377.842,410.662 377.5,411.5C 376.508,411.328 375.842,411.662 375.5,412.5C 374.508,412.328 373.842,412.662 373.5,413.5C 371.447,413.402 369.78,414.069 368.5,415.5C 367.508,415.328 366.842,415.662 366.5,416.5C 364.447,416.402 362.78,417.069 361.5,418.5C 360.508,418.328 359.842,418.662 359.5,419.5C 358.209,419.263 357.209,419.596 356.5,420.5C 354.447,420.402 352.78,421.069 351.5,422.5C 350.209,422.263 349.209,422.596 348.5,423.5C 347.209,423.263 346.209,423.596 345.5,424.5C 344.209,424.263 343.209,424.596 342.5,425.5C 341.209,425.263 340.209,425.596 339.5,426.5C 338.209,426.263 337.209,426.596 336.5,427.5C 333.848,427.41 331.515,428.076 329.5,429.5C 326.572,429.565 323.905,430.232 321.5,431.5C 319.901,431.232 318.568,431.566 317.5,432.5C 312.256,432.882 307.256,433.882 302.5,435.5C 300.265,435.205 298.265,435.539 296.5,436.5C 293.615,436.194 290.948,436.527 288.5,437.5C 278.514,438.166 268.514,438.499 258.5,438.5C 258.768,445.683 259.435,452.683 260.5,459.5C 260.629,466.845 260.962,474.178 261.5,481.5C 260.566,482.568 260.232,483.901 260.5,485.5C 259.662,485.842 259.328,486.508 259.5,487.5C 258.662,487.842 258.328,488.508 258.5,489.5C 257.662,489.842 257.328,490.508 257.5,491.5C 255.457,492.579 254.124,494.246 253.5,496.5C 251.973,496.427 250.973,497.094 250.5,498.5C 249.833,498.5 249.5,498.833 249.5,499.5C 248.508,499.328 247.842,499.662 247.5,500.5C 246.508,500.328 245.842,500.662 245.5,501.5C 238.82,502.791 232.154,502.791 225.5,501.5C 223.337,499.917 221.004,498.584 218.5,497.5C 215.516,494.209 213.016,490.542 211,486.5C 209.566,478.062 208.4,469.728 207.5,461.5C 207.167,452.833 206.833,444.167 206.5,435.5C 200.792,435.508 200.459,435.008 205.5,434C 203.866,433.506 202.199,433.34 200.5,433.5C 199.081,432.549 197.415,432.216 195.5,432.5C 193.095,431.232 190.428,430.565 187.5,430.5C 186.432,429.566 185.099,429.232 183.5,429.5C 181.485,428.076 179.152,427.41 176.5,427.5C 175.791,426.596 174.791,426.263 173.5,426.5C 170.785,424.928 167.785,423.928 164.5,423.5C 163.791,422.596 162.791,422.263 161.5,422.5C 158.47,420.597 155.137,419.263 151.5,418.5C 149.574,416.707 147.241,415.707 144.5,415.5C 136.332,410.915 127.998,406.582 119.5,402.5C 118.486,401.326 117.153,400.66 115.5,400.5C 114.341,398.75 112.674,397.75 110.5,397.5C 105.523,393.342 100.189,389.676 94.5,386.5C 93.1667,385.067 91.6667,383.733 90,382.5C 89.2828,383.044 88.7828,383.711 88.5,384.5C 87.8333,384.5 87.5,384.833 87.5,385.5C 86.8333,385.5 86.5,385.833 86.5,386.5C 85.8333,386.5 85.5,386.833 85.5,387.5C 84.8333,387.5 84.5,387.833 84.5,388.5C 83.8333,388.5 83.5,388.833 83.5,389.5C 82.8333,389.5 82.5,389.833 82.5,390.5C 81.8333,390.5 81.5,390.833 81.5,391.5C 80.8333,391.5 80.5,391.833 80.5,392.5C 79.8333,392.5 79.5,392.833 79.5,393.5C 78.8333,393.5 78.5,393.833 78.5,394.5C 77.8333,394.5 77.5,394.833 77.5,395.5C 76.8333,395.5 76.5,395.833 76.5,396.5C 75.8333,396.5 75.5,396.833 75.5,397.5C 74.8333,397.5 74.5,397.833 74.5,398.5C 73.8333,398.5 73.5,398.833 73.5,399.5C 72.8333,399.5 72.5,399.833 72.5,400.5C 67.5,404.833 62.8333,409.5 58.5,414.5C 57.8333,414.5 57.5,414.833 57.5,415.5C 56.8333,415.5 56.5,415.833 56.5,416.5C 55.5084,416.328 54.8417,416.662 54.5,417.5C 53.5084,417.328 52.8417,417.662 52.5,418.5C 49.9327,418.721 47.5994,419.388 45.5,420.5C 41.8212,420.276 38.1545,419.942 34.5,419.5C 33.791,418.596 32.791,418.263 31.5,418.5C 31.1583,417.662 30.4916,417.328 29.5,417.5C 25.8333,414.5 22.5,411.167 19.5,407.5C 16.878,401.127 15.878,394.461 16.5,387.5C 18.1227,383.6 20.2894,379.933 23,376.5C 32.681,366.986 42.181,357.319 51.5,347.5C 46.4472,341.456 41.4472,335.456 36.5,329.5C 35.9744,327.77 34.9744,326.436 33.5,325.5C 29.859,319.205 25.859,313.205 21.5,307.5C 21.2503,305.326 20.2503,303.659 18.5,302.5C 16.0078,296.182 13.0078,290.182 9.5,284.5C 8.06979,280.646 6.40312,276.979 4.5,273.5C 4.20414,271.597 3.53747,269.93 2.5,268.5C 2.59794,266.447 1.93127,264.78 0.5,263.5C 0.737305,262.209 0.403972,261.209 -0.5,260.5C -0.5,255.833 -0.5,251.167 -0.5,246.5C 16.2089,221.77 34.8756,198.437 55.5,176.5C 56.1667,176.5 56.5,176.167 56.5,175.5C 60.5,172.167 64.1667,168.5 67.5,164.5C 68.1667,164.5 68.5,164.167 68.5,163.5C 78.8714,153.628 89.7048,144.295 101,135.5C 100.066,131.628 98.5658,127.961 96.5,124.5C 94.7365,119.978 92.7365,115.645 90.5,111.5C 89.0698,107.646 87.4031,103.979 85.5,100.5C 84.0698,96.6456 82.4031,92.9789 80.5,89.5C 74.9845,75.4164 78.3178,63.9164 90.5,55C 97.5293,51.4973 104.863,50.664 112.5,52.5C 113.209,53.404 114.209,53.7373 115.5,53.5C 117.86,55.8532 120.527,57.8532 123.5,59.5C 123.738,61.4044 124.738,62.7377 126.5,63.5C 126.992,65.8185 127.992,67.8185 129.5,69.5C 130.376,73.5821 132.043,77.2488 134.5,80.5C 135.376,84.5821 137.043,88.2488 139.5,91.5C 140.376,95.5821 142.043,99.2488 144.5,102.5C 144.491,104.308 144.991,105.975 146,107.5C 161.522,99.2754 177.688,92.9421 194.5,88.5C 197.781,88.5797 200.781,87.913 203.5,86.5C 209.238,86.1803 214.905,85.3469 220.5,84C 218.447,66.2567 216.781,48.4233 215.5,30.5C 217.246,10.2803 228.246,1.44697 248.5,4C 252.615,5.22347 256.282,7.22347 259.5,10C 262.229,13.3075 264.562,16.8075 266.5,20.5 Z M 72.5,400.5 C 72.5,401.167 72.5,401.833 72.5,402.5C 68.1082,406.897 63.4416,410.897 58.5,414.5C 62.8333,409.5 67.5,404.833 72.5,400.5 Z"/></g>
<g><path style="opacity:0.008" fill="#fefffe" d="M 224.5,6.5 C 225.833,7.16667 225.833,7.16667 224.5,6.5 Z"/></g>
<g><path style="opacity:0.01" fill="#fefffe" d="M 266.5,20.5 C 266.369,19.7611 266.536,19.0944 267,18.5C 267.692,19.4368 267.525,20.1034 266.5,20.5 Z"/></g>
<g><path style="opacity:0.01" fill="#fefffe" d="M 214.5,20.5 C 215.525,20.8966 215.692,21.5632 215,22.5C 214.536,21.9056 214.369,21.2389 214.5,20.5 Z"/></g>
<g><path style="opacity:0.01" fill="#fefffe" d="M 267.5,24.5 C 267.351,23.448 267.517,22.448 268,21.5C 268.74,22.7494 268.573,23.7494 267.5,24.5 Z"/></g>
<g><path style="opacity:1" fill="#060606" d="M 228.5,102.5 C 232.5,102.5 236.5,102.5 240.5,102.5C 240.784,100.585 240.451,98.9187 239.5,97.5C 238.128,75.485 236.462,53.485 234.5,31.5C 233.672,24.4968 236.672,21.3301 243.5,22C 247.718,23.7345 249.551,26.9012 249,31.5C 251.475,55.1225 253.308,78.7891 254.5,102.5C 292.476,105.603 327.809,116.936 360.5,136.5C 370.185,115.3 379.019,93.6332 387,71.5C 391.171,65.271 395.837,64.9377 401,70.5C 401.667,72.5 401.667,74.5 401,76.5C 391.43,99.2802 382.764,122.28 375,145.5C 422.883,181.038 461.05,224.872 489.5,277C 474.559,309.343 453.226,336.843 425.5,359.5C 433.667,373.167 441.833,386.833 450,400.5C 451.131,406.538 448.631,409.871 442.5,410.5C 440.088,410.594 438.255,409.594 437,407.5C 429.365,394.369 421.532,381.369 413.5,368.5C 361.183,405.455 303.016,422.455 239,419.5C 239.755,437.17 240.922,454.837 242.5,472.5C 243.503,482.007 239.503,485.507 230.5,483C 229.54,481.581 228.707,480.081 228,478.5C 226.873,458.133 225.373,437.8 223.5,417.5C 186.918,413.139 152.918,401.306 121.5,382C 110.148,374.658 99.1482,366.824 88.5,358.5C 74.6806,371.819 61.014,385.319 47.5,399C 40.8327,402.332 36.8327,400.332 35.5,393C 35.8584,390.968 36.6917,389.134 38,387.5C 51.1667,374.333 64.3333,361.167 77.5,348C 50.0669,321.319 30.0669,289.819 17.5,253.5C 46.5803,209.749 82.247,172.082 124.5,140.5C 115.333,120.167 106.167,99.8333 97,79.5C 96.8246,72.3532 100.325,69.5199 107.5,71C 108.333,71.8333 109.167,72.6667 110,73.5C 119.107,93.3767 128.441,113.043 138,132.5C 165.874,115.598 196.041,105.598 228.5,102.5 Z"/></g>
<g><path style="opacity:0.01" fill="#fefffe" d="M 213.5,23.5 C 214.647,27.6463 214.814,31.9796 214,36.5C 213.501,32.1794 213.334,27.8461 213.5,23.5 Z"/></g>
<g><path style="opacity:0.01" fill="#fefffe" d="M 268.5,25.5 C 269.638,28.3035 269.805,31.3035 269,34.5C 268.502,31.5184 268.335,28.5184 268.5,25.5 Z"/></g>
<g><path style="opacity:0.009" fill="#fefffe" d="M 269.5,36.5 C 270.641,39.6399 270.808,42.9733 270,46.5C 269.502,43.1832 269.335,39.8499 269.5,36.5 Z"/></g>
<g><path style="opacity:0.009" fill="#fefffe" d="M 214.5,38.5 C 215.641,41.6399 215.808,44.9733 215,48.5C 214.502,45.1832 214.335,41.8499 214.5,38.5 Z"/></g>
<g><path style="opacity:0.01" fill="#fefffe" d="M 387.5,47.5 C 388.251,46.4265 389.251,46.2599 390.5,47C 389.552,47.4828 388.552,47.6495 387.5,47.5 Z"/></g>
<g><path style="opacity:0.009" fill="#fefffe" d="M 397.5,47.5 C 398.601,46.4017 399.934,46.235 401.5,47C 400.207,47.49 398.873,47.6567 397.5,47.5 Z"/></g>
<g><path style="opacity:0.01" fill="#fefffe" d="M 386.5,48.5 C 385.761,48.631 385.094,48.4643 384.5,48C 385.437,47.3083 386.103,47.475 386.5,48.5 Z"/></g>
<g><path style="opacity:0.008" fill="#fefffe" d="M 270.5,58.5 C 270.335,55.1501 270.502,51.8168 271,48.5C 271.808,52.0267 271.641,55.3601 270.5,58.5 Z"/></g>
<g><path style="opacity:0.012" fill="#fefffe" d="M 382.5,48.5 C 383.833,49.1667 383.833,49.1667 382.5,48.5 Z"/></g>
<g><path style="opacity:0.012" fill="#fefffe" d="M 406.5,49.5 C 407.833,50.1667 407.833,50.1667 406.5,49.5 Z"/></g>
<g><path style="opacity:0.009" fill="#fefffe" d="M 215.5,50.5 C 216.638,53.3035 216.805,56.3035 216,59.5C 215.502,56.5184 215.335,53.5184 215.5,50.5 Z"/></g>
<g><path style="opacity:0.008" fill="#fefffe" d="M 408.5,50.5 C 409.833,51.1667 409.833,51.1667 408.5,50.5 Z"/></g>
<g><path style="opacity:0.008" fill="#fefffe" d="M 92.5,52.5 C 92.8966,51.475 93.5632,51.3083 94.5,52C 93.9056,52.4643 93.2389,52.631 92.5,52.5 Z"/></g>
<g><path style="opacity:0.008" fill="#fefffe" d="M 112.5,52.5 C 112.897,51.475 113.563,51.3083 114.5,52C 113.906,52.4643 113.239,52.631 112.5,52.5 Z"/></g>
<g><path style="opacity:0.012" fill="#fefffe" d="M 115.5,52.5 C 116.833,53.1667 116.833,53.1667 115.5,52.5 Z"/></g>
<g><path style="opacity:0.008" fill="#fefffe" d="M 410.5,52.5 C 411.833,53.1667 411.833,53.1667 410.5,52.5 Z"/></g>
<g><path style="opacity:0.008" fill="#fefffe" d="M 117.5,53.5 C 118.833,54.1667 118.833,54.1667 117.5,53.5 Z"/></g>
<g><path style="opacity:0.004" fill="#fefffe" d="M 413.5,54.5 C 412.833,53.1667 412.833,53.1667 413.5,54.5 Z"/></g>
<g><path style="opacity:0.004" fill="#fefffe" d="M 413.5,54.5 C 414.833,55.1667 414.833,55.1667 413.5,54.5 Z"/></g>
<g><path style="opacity:0.008" fill="#fefffe" d="M 124.5,59.5 C 123.833,58.1667 123.833,58.1667 124.5,59.5 Z"/></g>
<g><path style="opacity:0.012" fill="#fefffe" d="M 416.5,58.5 C 417.833,59.1667 417.833,59.1667 416.5,58.5 Z"/></g>
<g><path style="opacity:0.004" fill="#fefffe" d="M 124.5,59.5 C 125.833,60.1667 125.833,60.1667 124.5,59.5 Z"/></g>
<g><path style="opacity:0.009" fill="#fefffe" d="M 271.5,69.5 C 271.335,66.1501 271.502,62.8168 272,59.5C 272.808,63.0267 272.641,66.3601 271.5,69.5 Z"/></g>
<g><path style="opacity:0.008" fill="#fefffe" d="M 81.5,60.5 C 82.8333,61.1667 82.8333,61.1667 81.5,60.5 Z"/></g>
<g><path style="opacity:0.009" fill="#fefffe" d="M 216.5,61.5 C 217.638,64.3035 217.805,67.3035 217,70.5C 216.502,67.5184 216.335,64.5184 216.5,61.5 Z"/></g>
<g><path style="opacity:0.012" fill="#fefffe" d="M 126.5,62.5 C 127.833,63.1667 127.833,63.1667 126.5,62.5 Z"/></g>
<g><path style="opacity:0.007" fill="#fefffe" d="M 420.5,66.5 C 420.167,66.5 419.833,66.5 419.5,66.5C 419.833,62.5 420.167,62.5 420.5,66.5 Z"/></g>
<g><path style="opacity:0.009" fill="#fefffe" d="M 420.5,66.5 C 421.598,67.6009 421.765,68.9343 421,70.5C 420.51,69.2068 420.343,67.8734 420.5,66.5 Z"/></g>
<g><path style="opacity:0.008" fill="#fefffe" d="M 129.5,69.5 C 129.369,68.7611 129.536,68.0944 130,67.5C 130.692,68.4368 130.525,69.1034 129.5,69.5 Z"/></g>
<g><path style="opacity:0.01" fill="#fefffe" d="M 367.5,69.5 C 367.167,69.5 366.833,69.5 366.5,69.5C 366.833,66.8333 367.167,66.8333 367.5,69.5 Z"/></g>
<g><path style="opacity:0.008" fill="#fefffe" d="M 366.5,69.5 C 366.631,70.2389 366.464,70.9056 366,71.5C 365.308,70.5632 365.475,69.8966 366.5,69.5 Z"/></g>
<g><path style="opacity:0.01" fill="#fefffe" d="M 76.5,70.5 C 77.5983,71.6009 77.765,72.9343 77,74.5C 76.51,73.2068 76.3433,71.8734 76.5,70.5 Z"/></g>
<g><path style="opacity:0.012" fill="#fefffe" d="M 130.5,70.5 C 131.833,71.1667 131.833,71.1667 130.5,70.5 Z"/></g>
<g><path style="opacity:0.009" fill="#fefffe" d="M 272.5,70.5 C 273.641,73.6399 273.808,76.9733 273,80.5C 272.502,77.1832 272.335,73.8499 272.5,70.5 Z"/></g>
<g><path style="opacity:0.004" fill="#fefffe" d="M 421.5,72.5 C 422.573,73.2506 422.74,74.2506 422,75.5C 421.517,74.552 421.351,73.552 421.5,72.5 Z"/></g>
<g><path style="opacity:0.009" fill="#fefffe" d="M 217.5,73.5 C 218.806,76.6868 218.806,80.0202 217.5,83.5C 217.363,80.4473 217.363,77.114 217.5,73.5 Z"/></g>
<g><path style="opacity:0.008" fill="#fefffe" d="M 420.5,76.5 C 421.833,78.1667 421.833,79.8333 420.5,81.5C 420.5,79.8333 420.5,78.1667 420.5,76.5 Z"/></g>
<g><path style="opacity:0.008" fill="#fefffe" d="M 134.5,80.5 C 134.369,79.7611 134.536,79.0944 135,78.5C 135.692,79.4368 135.525,80.1034 134.5,80.5 Z"/></g>
<g><path style="opacity:0.008" fill="#fefffe" d="M 76.5,80.5 C 77.5983,81.6009 77.765,82.9343 77,84.5C 76.51,83.2068 76.3433,81.8734 76.5,80.5 Z"/></g>
<g><path style="opacity:0.012" fill="#fefffe" d="M 135.5,81.5 C 136.833,82.1667 136.833,82.1667 135.5,81.5 Z"/></g>
<g><path style="opacity:0.01" fill="#fefffe" d="M 419.5,81.5 C 419.833,81.5 420.167,81.5 420.5,81.5C 420.167,84.1667 419.833,84.1667 419.5,81.5 Z"/></g>
<g><path style="opacity:0.009" fill="#fefffe" d="M 210.5,84.5 C 211.946,83.3871 213.613,83.2204 215.5,84C 213.866,84.4935 212.199,84.6602 210.5,84.5 Z"/></g>
<g><path style="opacity:0.01" fill="#fefffe" d="M 273.5,84.5 C 273.897,83.475 274.563,83.3083 275.5,84C 274.906,84.4643 274.239,84.631 273.5,84.5 Z"/></g>
<g><path style="opacity:0.01" fill="#fefffe" d="M 204.5,85.5 C 205.601,84.4017 206.934,84.235 208.5,85C 207.207,85.49 205.873,85.6567 204.5,85.5 Z"/></g>
<g><path style="opacity:0.01" fill="#fefffe" d="M 277.5,85.5 C 278.601,84.4017 279.934,84.235 281.5,85C 280.207,85.49 278.873,85.6567 277.5,85.5 Z"/></g>
<g><path style="opacity:0.01" fill="#fefffe" d="M 418.5,84.5 C 419.833,85.1667 419.833,85.8333 418.5,86.5C 418.5,85.8333 418.5,85.1667 418.5,84.5 Z"/></g>
<g><path style="opacity:0.008" fill="#fefffe" d="M 77.5,85.5 C 78.525,85.8966 78.6917,86.5632 78,87.5C 77.5357,86.9056 77.369,86.2389 77.5,85.5 Z"/></g>
<g><path style="opacity:0.009" fill="#fefffe" d="M 203.5,86.5 C 202.127,86.6567 200.793,86.49 199.5,86C 201.066,85.235 202.399,85.4017 203.5,86.5 Z"/></g>
<g><path style="opacity:0.01" fill="#fefffe" d="M 195.5,87.5 C 196.251,86.4265 197.251,86.2599 198.5,87C 197.552,87.4828 196.552,87.6495 195.5,87.5 Z"/></g>
<g><path style="opacity:0.009" fill="#fefffe" d="M 287.5,87.5 C 288.601,86.4017 289.934,86.235 291.5,87C 290.207,87.49 288.873,87.6567 287.5,87.5 Z"/></g>
<g><path style="opacity:0.007" fill="#fefffe" d="M 417.5,86.5 C 417.833,86.5 418.167,86.5 418.5,86.5C 418.737,87.791 418.404,88.791 417.5,89.5C 417.5,88.5 417.5,87.5 417.5,86.5 Z"/></g>
<g><path style="opacity:0.01" fill="#fefffe" d="M 194.5,88.5 C 193.448,88.6495 192.448,88.4828 191.5,88C 192.749,87.2599 193.749,87.4265 194.5,88.5 Z"/></g>
<g><path style="opacity:0.008" fill="#fefffe" d="M 80.5,89.5 C 80.631,90.2389 80.4643,90.9056 80,91.5C 79.3083,90.5632 79.475,89.8966 80.5,89.5 Z"/></g>
<g><path style="opacity:0.008" fill="#fefffe" d="M 139.5,91.5 C 139.369,90.7611 139.536,90.0944 140,89.5C 140.692,90.4368 140.525,91.1034 139.5,91.5 Z"/></g>
<g><path style="opacity:0.009" fill="#fefffe" d="M 300.5,90.5 C 301.251,89.4265 302.251,89.2599 303.5,90C 302.552,90.4828 301.552,90.6495 300.5,90.5 Z"/></g>
<g><path style="opacity:0.01" fill="#fefffe" d="M 416.5,89.5 C 416.833,89.5 417.167,89.5 417.5,89.5C 417.167,92.1667 416.833,92.1667 416.5,89.5 Z"/></g>
<g><path style="opacity:0.008" fill="#fefffe" d="M 304.5,91.5 C 305.251,90.4265 306.251,90.2599 307.5,91C 306.552,91.4828 305.552,91.6495 304.5,91.5 Z"/></g>
<g><path style="opacity:0.01" fill="#fefffe" d="M 358.5,92.5 C 358.167,92.5 357.833,92.5 357.5,92.5C 357.833,89.8333 358.167,89.8333 358.5,92.5 Z"/></g>
<g><path style="opacity:0.01" fill="#fefffe" d="M 308.5,92.5 C 308.897,91.475 309.563,91.3083 310.5,92C 309.906,92.4643 309.239,92.631 308.5,92.5 Z"/></g>
<g><path style="opacity:0.012" fill="#fefffe" d="M 80.5,92.5 C 81.8333,93.1667 81.8333,93.1667 80.5,92.5 Z"/></g>
<g><path style="opacity:0.012" fill="#fefffe" d="M 140.5,92.5 C 141.833,93.1667 141.833,93.1667 140.5,92.5 Z"/></g>
<g><path style="opacity:0.008" fill="#fefffe" d="M 357.5,92.5 C 357.631,93.2389 357.464,93.9056 357,94.5C 356.308,93.5632 356.475,92.8966 357.5,92.5 Z"/></g>
<g><path style="opacity:0.008" fill="#fefffe" d="M 415.5,94.5 C 415.369,93.7611 415.536,93.0944 416,92.5C 416.692,93.4368 416.525,94.1034 415.5,94.5 Z"/></g>
<g><path style="opacity:0.01" fill="#fefffe" d="M 414.5,94.5 C 414.833,94.5 415.167,94.5 415.5,94.5C 415.167,97.1667 414.833,97.1667 414.5,94.5 Z"/></g>
<g><path style="opacity:0.01" fill="#fefffe" d="M 320.5,96.5 C 320.897,95.475 321.563,95.3083 322.5,96C 321.906,96.4643 321.239,96.631 320.5,96.5 Z"/></g>
<g><path style="opacity:0.01" fill="#fefffe" d="M 323.5,97.5 C 323.897,96.475 324.563,96.3083 325.5,97C 324.906,97.4643 324.239,97.631 323.5,97.5 Z"/></g>
<g><path style="opacity:0.008" fill="#fefffe" d="M 328.5,98.5 C 327.761,98.631 327.094,98.4643 326.5,98C 327.437,97.3083 328.103,97.475 328.5,98.5 Z"/></g>
<g><path style="opacity:0.008" fill="#fefffe" d="M 413.5,99.5 C 413.369,98.7611 413.536,98.0944 414,97.5C 414.692,98.4368 414.525,99.1034 413.5,99.5 Z"/></g>
<g><path style="opacity:0.008" fill="#fefffe" d="M 328.5,99.5 C 328.5,99.1667 328.5,98.8333 328.5,98.5C 331.167,98.8333 331.167,99.1667 328.5,99.5 Z"/></g>
<g><path style="opacity:0.008" fill="#fefffe" d="M 156.5,100.5 C 156.897,99.475 157.563,99.3083 158.5,100C 157.906,100.464 157.239,100.631 156.5,100.5 Z"/></g>
<g><path style="opacity:0.01" fill="#fefffe" d="M 412.5,99.5 C 412.833,99.5 413.167,99.5 413.5,99.5C 413.167,102.167 412.833,102.167 412.5,99.5 Z"/></g>
<g><path style="opacity:0.008" fill="#fefffe" d="M 85.5,100.5 C 85.631,101.239 85.4643,101.906 85,102.5C 84.3083,101.563 84.475,100.897 85.5,100.5 Z"/></g>
<g><path style="opacity:0.008" fill="#fefffe" d="M 144.5,102.5 C 144.369,101.761 144.536,101.094 145,100.5C 145.692,101.437 145.525,102.103 144.5,102.5 Z"/></g>
<g><path style="opacity:0.01" fill="#fefffe" d="M 333.5,101.5 C 333.897,100.475 334.563,100.308 335.5,101C 334.906,101.464 334.239,101.631 333.5,101.5 Z"/></g>
<g><path style="opacity:1" fill="#929292" d="M 239.5,97.5 C 240.451,98.9187 240.784,100.585 240.5,102.5C 236.5,102.5 232.5,102.5 228.5,102.5C 231.962,101.518 235.629,101.185 239.5,101.5C 239.5,100.167 239.5,98.8333 239.5,97.5 Z"/></g>
<g><path style="opacity:0.008" fill="#fefffe" d="M 336.5,102.5 C 336.897,101.475 337.563,101.308 338.5,102C 337.906,102.464 337.239,102.631 336.5,102.5 Z"/></g>
<g><path style="opacity:0.008" fill="#fefffe" d="M 411.5,102.5 C 412.833,103.167 412.833,103.833 411.5,104.5C 411.5,103.833 411.5,103.167 411.5,102.5 Z"/></g>
<g><path style="opacity:0.012" fill="#fefffe" d="M 85.5,103.5 C 86.8333,104.167 86.8333,104.167 85.5,103.5 Z"/></g>
<g><path style="opacity:0.012" fill="#fefffe" d="M 145.5,103.5 C 146.833,104.167 146.833,104.167 145.5,103.5 Z"/></g>
<g><path style="opacity:0.01" fill="#fefffe" d="M 410.5,104.5 C 410.833,104.5 411.167,104.5 411.5,104.5C 411.167,107.167 410.833,107.167 410.5,104.5 Z"/></g>
<g><path style="opacity:0.008" fill="#fefffe" d="M 344.5,106.5 C 344.897,105.475 345.563,105.308 346.5,106C 345.906,106.464 345.239,106.631 344.5,106.5 Z"/></g>
<g><path style="opacity:0.012" fill="#fefffe" d="M 347.5,106.5 C 348.833,107.167 348.833,107.167 347.5,106.5 Z"/></g>
<g><path style="opacity:0.01" fill="#fefffe" d="M 409.5,107.5 C 410.833,108.167 410.833,108.833 409.5,109.5C 409.5,108.833 409.5,108.167 409.5,107.5 Z"/></g>
<g><path style="opacity:0.007" fill="#fefffe" d="M 408.5,109.5 C 408.833,109.5 409.167,109.5 409.5,109.5C 409.737,110.791 409.404,111.791 408.5,112.5C 408.5,111.5 408.5,110.5 408.5,109.5 Z"/></g>
<g><path style="opacity:0.01" fill="#fefffe" d="M 90.5,111.5 C 90.631,112.239 90.4643,112.906 90,113.5C 89.3083,112.563 89.475,111.897 90.5,111.5 Z"/></g>
<g><path style="opacity:0.01" fill="#fefffe" d="M 407.5,112.5 C 407.833,112.5 408.167,112.5 408.5,112.5C 408.167,115.167 407.833,115.167 407.5,112.5 Z"/></g>
<g><path style="opacity:0.012" fill="#fefffe" d="M 90.5,114.5 C 91.8333,115.167 91.8333,115.167 90.5,114.5 Z"/></g>
<g><path style="opacity:0.008" fill="#fefffe" d="M 406.5,117.5 C 406.369,116.761 406.536,116.094 407,115.5C 407.692,116.437 407.525,117.103 406.5,117.5 Z"/></g>
<g><path style="opacity:1" fill="#fcfcfc" d="M 227.5,116.5 C 283.759,115.309 334.092,131.809 378.5,166C 416.926,197.579 448.593,234.745 473.5,277.5C 448.311,324.189 411.644,358.689 363.5,381C 266.072,423.367 176.406,411.033 94.5,344C 70.4088,321.978 51.5755,296.144 38,266.5C 36.0286,262.26 34.6953,257.927 34,253.5C 61.4215,216.078 93.5882,183.245 130.5,155C 159.651,134.008 191.984,121.175 227.5,116.5 Z"/></g>
<g><path style="opacity:0.01" fill="#fefffe" d="M 405.5,117.5 C 405.833,117.5 406.167,117.5 406.5,117.5C 406.167,120.167 405.833,120.167 405.5,117.5 Z"/></g>
<g><path style="opacity:0.008" fill="#fefffe" d="M 404.5,122.5 C 404.369,121.761 404.536,121.094 405,120.5C 405.692,121.437 405.525,122.103 404.5,122.5 Z"/></g>
<g><path style="opacity:0.01" fill="#fefffe" d="M 403.5,122.5 C 403.833,122.5 404.167,122.5 404.5,122.5C 404.167,125.167 403.833,125.167 403.5,122.5 Z"/></g>
<g><path style="opacity:0.008" fill="#fefffe" d="M 96.5,124.5 C 96.631,125.239 96.4643,125.906 96,126.5C 95.3083,125.563 95.475,124.897 96.5,124.5 Z"/></g>
<g><path style="opacity:0.008" fill="#fefffe" d="M 402.5,125.5 C 403.833,126.167 403.833,126.833 402.5,127.5C 402.5,126.833 402.5,126.167 402.5,125.5 Z"/></g>
<g><path style="opacity:1" fill="#010101" d="M 247.5,126.5 C 256.082,126.207 262.915,129.541 268,136.5C 273.388,144.609 277.721,153.276 281,162.5C 296.86,220.943 297.527,279.61 283,338.5C 279.452,351.591 273.786,363.591 266,374.5C 254.995,384.379 244.662,383.712 235,372.5C 228.393,362.618 223.393,351.952 220,340.5C 206.427,284.225 206.094,227.892 219,171.5C 222.474,155.38 229.974,141.546 241.5,130C 243.727,129.059 245.727,127.892 247.5,126.5 Z"/></g>
<g><path style="opacity:0.01" fill="#fefffe" d="M 401.5,127.5 C 401.833,127.5 402.167,127.5 402.5,127.5C 402.167,130.167 401.833,130.167 401.5,127.5 Z"/></g>
<g><path style="opacity:0.01" fill="#fefffe" d="M 400.5,130.5 C 401.833,131.167 401.833,131.833 400.5,132.5C 400.5,131.833 400.5,131.167 400.5,130.5 Z"/></g>
<g><path style="opacity:0.007" fill="#fefffe" d="M 399.5,132.5 C 399.833,132.5 400.167,132.5 400.5,132.5C 400.737,133.791 400.404,134.791 399.5,135.5C 399.5,134.5 399.5,133.5 399.5,132.5 Z"/></g>
<g><path style="opacity:0.01" fill="#fefffe" d="M 398.5,135.5 C 398.833,135.5 399.167,135.5 399.5,135.5C 399.167,138.167 398.833,138.167 398.5,135.5 Z"/></g>
<g><path style="opacity:0.005" fill="#fefffe" d="M 68.5,163.5 C 67.8333,163.5 67.5,163.833 67.5,164.5C 65.0248,164.253 65.0248,163.587 67.5,162.5C 68.1067,162.624 68.44,162.957 68.5,163.5 Z"/></g>
<g><path style="opacity:0.005" fill="#fefffe" d="M 56.5,175.5 C 55.8333,175.5 55.5,175.833 55.5,176.5C 54.2875,175.503 54.4542,174.503 56,173.5C 56.4643,174.094 56.631,174.761 56.5,175.5 Z"/></g>
<g><path style="opacity:0.016" fill="#fefffe" d="M 473.5,215.5 C 472.833,214.167 472.833,214.167 473.5,215.5 Z"/></g>
<g><path style="opacity:0.008" fill="#fefffe" d="M 473.5,215.5 C 474.833,216.167 474.833,216.167 473.5,215.5 Z"/></g>
<g><path style="opacity:0.008" fill="#fefffe" d="M 3.5,235.5 C 4.83333,236.167 4.83333,236.167 3.5,235.5 Z"/></g>
<g><path style="opacity:0.008" fill="#fefffe" d="M 497.5,250.5 C 497.167,250.5 496.833,250.5 496.5,250.5C 496.833,247.833 497.167,247.833 497.5,250.5 Z"/></g>
<g><path style="opacity:0.012" fill="#fefffe" d="M 497.5,250.5 C 498.833,251.167 498.833,251.167 497.5,250.5 Z"/></g>
<g><path style="opacity:0.008" fill="#fefffe" d="M 502.5,258.5 C 502.167,258.5 501.833,258.5 501.5,258.5C 501.833,255.833 502.167,255.833 502.5,258.5 Z"/></g>
<g><path style="opacity:0.012" fill="#fefffe" d="M 502.5,258.5 C 503.833,259.167 503.833,259.167 502.5,258.5 Z"/></g>
<g><path style="opacity:0.008" fill="#fefffe" d="M 505.5,263.5 C 505.167,263.5 504.833,263.5 504.5,263.5C 504.833,260.833 505.167,260.833 505.5,263.5 Z"/></g>
<g><path style="opacity:0.01" fill="#fefffe" d="M -0.5,263.5 C -0.166667,263.5 0.166667,263.5 0.5,263.5C 0.67158,264.492 0.338246,265.158 -0.5,265.5C -0.5,264.833 -0.5,264.167 -0.5,263.5 Z"/></g>
<g><path style="opacity:0.012" fill="#fefffe" d="M 505.5,263.5 C 506.833,264.167 506.833,264.167 505.5,263.5 Z"/></g>
<g><path style="opacity:0.012" fill="#fefffe" d="M 507.5,265.5 C 507.5,265.833 507.5,266.167 507.5,266.5C 506.83,266.019 506.83,265.685 507.5,265.5 Z"/></g>
<g><path style="opacity:0.008" fill="#fefffe" d="M 1.5,268.5 C 0.474981,268.103 0.308314,267.437 1,266.5C 1.46434,267.094 1.63101,267.761 1.5,268.5 Z"/></g>
<g><path style="opacity:0.008" fill="#fefffe" d="M 1.5,268.5 C 1.83333,268.5 2.16667,268.5 2.5,268.5C 2.16667,271.167 1.83333,271.167 1.5,268.5 Z"/></g>
<g><path style="opacity:0.01" fill="#fefffe" d="M 4.5,273.5 C 4.63101,274.239 4.46434,274.906 4,275.5C 3.30831,274.563 3.47498,273.897 4.5,273.5 Z"/></g>
<g><path style="opacity:0.012" fill="#fefffe" d="M 4.5,276.5 C 5.83333,277.167 5.83333,277.167 4.5,276.5 Z"/></g>
<g><path style="opacity:0.008" fill="#fefffe" d="M 9.5,284.5 C 9.63101,285.239 9.46434,285.906 9,286.5C 8.30831,285.563 8.47498,284.897 9.5,284.5 Z"/></g>
<g><path style="opacity:0.01" fill="#fefffe" d="M 506.5,286.5 C 506.833,286.5 507.167,286.5 507.5,286.5C 507.5,287.167 507.5,287.833 507.5,288.5C 507.167,288.5 506.833,288.5 506.5,288.5C 506.5,287.833 506.5,287.167 506.5,286.5 Z"/></g>
<g><path style="opacity:0.012" fill="#fefffe" d="M 9.5,287.5 C 10.8333,288.167 10.8333,288.167 9.5,287.5 Z"/></g>
<g><path style="opacity:0.008" fill="#fefffe" d="M 505.5,288.5 C 505.833,288.5 506.167,288.5 506.5,288.5C 506.672,289.492 506.338,290.158 505.5,290.5C 505.5,289.833 505.5,289.167 505.5,288.5 Z"/></g>
<g><path style="opacity:0.012" fill="#fefffe" d="M 10.5,289.5 C 11.8333,290.167 11.8333,290.167 10.5,289.5 Z"/></g>
<g><path style="opacity:0.008" fill="#fefffe" d="M 504.5,290.5 C 504.833,290.5 505.167,290.5 505.5,290.5C 505.672,291.492 505.338,292.158 504.5,292.5C 504.5,291.833 504.5,291.167 504.5,290.5 Z"/></g>
<g><path style="opacity:0.012" fill="#fefffe" d="M 11.5,291.5 C 12.8333,292.167 12.8333,292.167 11.5,291.5 Z"/></g>
<g><path style="opacity:0.01" fill="#fefffe" d="M 503.5,292.5 C 503.833,292.5 504.167,292.5 504.5,292.5C 504.672,293.492 504.338,294.158 503.5,294.5C 503.5,293.833 503.5,293.167 503.5,292.5 Z"/></g>
<g><path style="opacity:0.012" fill="#fefffe" d="M 12.5,293.5 C 13.8333,294.167 13.8333,294.167 12.5,293.5 Z"/></g>
<g><path style="opacity:0.008" fill="#fefffe" d="M 502.5,294.5 C 502.833,294.5 503.167,294.5 503.5,294.5C 503.672,295.492 503.338,296.158 502.5,296.5C 502.5,295.833 502.5,295.167 502.5,294.5 Z"/></g>
<g><path style="opacity:0.008" fill="#fefffe" d="M 501.5,296.5 C 501.833,296.5 502.167,296.5 502.5,296.5C 502.672,297.492 502.338,298.158 501.5,298.5C 501.5,297.833 501.5,297.167 501.5,296.5 Z"/></g>
<g><path style="opacity:0.012" fill="#fefffe" d="M 500.5,298.5 C 500.833,298.5 501.167,298.5 501.5,298.5C 501.315,299.17 500.981,299.17 500.5,298.5 Z"/></g>
<g><path style="opacity:0.012" fill="#fefffe" d="M 499.5,300.5 C 500.833,301.167 500.833,301.167 499.5,300.5 Z"/></g>
<g><path style="opacity:0.008" fill="#fefffe" d="M 498.5,301.5 C 498.833,301.5 499.167,301.5 499.5,301.5C 499.672,302.492 499.338,303.158 498.5,303.5C 498.5,302.833 498.5,302.167 498.5,301.5 Z"/></g>
<g><path style="opacity:0.012" fill="#fefffe" d="M 18.5,302.5 C 17.8333,303.167 17.8333,303.167 18.5,302.5 Z"/></g>
<g><path style="opacity:0.008" fill="#fefffe" d="M 497.5,303.5 C 497.833,303.5 498.167,303.5 498.5,303.5C 498.672,304.492 498.338,305.158 497.5,305.5C 497.5,304.833 497.5,304.167 497.5,303.5 Z"/></g>
<g><path style="opacity:0.012" fill="#fefffe" d="M 18.5,304.5 C 19.8333,305.167 19.8333,305.167 18.5,304.5 Z"/></g>
<g><path style="opacity:0.016" fill="#fefffe" d="M 496.5,305.5 C 496.833,305.5 497.167,305.5 497.5,305.5C 497.315,306.17 496.981,306.17 496.5,305.5 Z"/></g>
<g><path style="opacity:0.016" fill="#fefffe" d="M 21.5,307.5 C 20.8333,308.167 20.8333,308.167 21.5,307.5 Z"/></g>
<g><path style="opacity:0.008" fill="#fefffe" d="M 495.5,307.5 C 496.833,308.167 496.833,308.167 495.5,307.5 Z"/></g>
<g><path style="opacity:0.008" fill="#fefffe" d="M 494.5,308.5 C 494.833,308.5 495.167,308.5 495.5,308.5C 495.672,309.492 495.338,310.158 494.5,310.5C 494.5,309.833 494.5,309.167 494.5,308.5 Z"/></g>
<g><path style="opacity:0.012" fill="#fefffe" d="M 21.5,309.5 C 22.8333,310.167 22.8333,310.167 21.5,309.5 Z"/></g>
<g><path style="opacity:0.012" fill="#fefffe" d="M 493.5,310.5 C 493.833,310.5 494.167,310.5 494.5,310.5C 494.315,311.17 493.981,311.17 493.5,310.5 Z"/></g>
<g><path style="opacity:0.008" fill="#fefffe" d="M 492.5,311.5 C 492.833,311.5 493.167,311.5 493.5,311.5C 493.672,312.492 493.338,313.158 492.5,313.5C 492.5,312.833 492.5,312.167 492.5,311.5 Z"/></g>
<g><path style="opacity:0.016" fill="#fefffe" d="M 491.5,313.5 C 491.833,313.5 492.167,313.5 492.5,313.5C 492.315,314.17 491.981,314.17 491.5,313.5 Z"/></g>
<g><path style="opacity:0.006" fill="#fefffe" d="M 490.5,314.5 C 490.833,314.5 491.167,314.5 491.5,314.5C 491.672,315.492 491.338,316.158 490.5,316.5C 490.5,315.833 490.5,315.167 490.5,314.5 Z"/></g>
<g><path style="opacity:0.016" fill="#fefffe" d="M 489.5,316.5 C 489.833,316.5 490.167,316.5 490.5,316.5C 490.315,317.17 489.981,317.17 489.5,316.5 Z"/></g>
<g><path style="opacity:0.006" fill="#fefffe" d="M 488.5,317.5 C 488.833,317.5 489.167,317.5 489.5,317.5C 489.672,318.492 489.338,319.158 488.5,319.5C 488.5,318.833 488.5,318.167 488.5,317.5 Z"/></g>
<g><path style="opacity:0.016" fill="#fefffe" d="M 487.5,319.5 C 487.833,319.5 488.167,319.5 488.5,319.5C 488.315,320.17 487.981,320.17 487.5,319.5 Z"/></g>
<g><path style="opacity:0.006" fill="#fefffe" d="M 486.5,320.5 C 486.833,320.5 487.167,320.5 487.5,320.5C 487.672,321.492 487.338,322.158 486.5,322.5C 486.5,321.833 486.5,321.167 486.5,320.5 Z"/></g>
<g><path style="opacity:0.012" fill="#fefffe" d="M 485.5,322.5 C 485.833,322.5 486.167,322.5 486.5,322.5C 486.315,323.17 485.981,323.17 485.5,322.5 Z"/></g>
<g><path style="opacity:0.012" fill="#fefffe" d="M 484.5,323.5 C 484.833,323.5 485.167,323.5 485.5,323.5C 485.315,324.17 484.981,324.17 484.5,323.5 Z"/></g>
<g><path style="opacity:0.016" fill="#fefffe" d="M 33.5,325.5 C 32.8333,326.167 32.8333,326.167 33.5,325.5 Z"/></g>
<g><path style="opacity:0.008" fill="#fefffe" d="M 483.5,325.5 C 484.833,326.167 484.833,326.167 483.5,325.5 Z"/></g>
<g><path style="opacity:0.016" fill="#fefffe" d="M 482.5,326.5 C 482.833,326.5 483.167,326.5 483.5,326.5C 483.315,327.17 482.981,327.17 482.5,326.5 Z"/></g>
<g><path style="opacity:0.008" fill="#fefffe" d="M 33.5,327.5 C 34.8333,328.167 34.8333,328.167 33.5,327.5 Z"/></g>
<g><path style="opacity:0.012" fill="#fefffe" d="M 36.5,329.5 C 35.8333,330.167 35.8333,330.167 36.5,329.5 Z"/></g>
<g><path style="opacity:0.008" fill="#fefffe" d="M 36.5,331.5 C 37.8333,332.167 37.8333,332.167 36.5,331.5 Z"/></g>
<g><path style="opacity:0.016" fill="#fefffe" d="M 478.5,331.5 C 479.833,332.167 479.833,332.167 478.5,331.5 Z"/></g>
<g><path style="opacity:0.008" fill="#fefffe" d="M 477.5,333.5 C 478.833,334.167 478.833,334.167 477.5,333.5 Z"/></g>
<g><path style="opacity:0.012" fill="#fefffe" d="M 476.5,334.5 C 476.833,334.5 477.167,334.5 477.5,334.5C 477.315,335.17 476.981,335.17 476.5,334.5 Z"/></g>
<g><path style="opacity:0.016" fill="#fefffe" d="M 475.5,335.5 C 475.833,335.5 476.167,335.5 476.5,335.5C 476.315,336.17 475.981,336.17 475.5,335.5 Z"/></g>
<g><path style="opacity:0.016" fill="#fefffe" d="M 474.5,336.5 C 474.833,336.5 475.167,336.5 475.5,336.5C 475.315,337.17 474.981,337.17 474.5,336.5 Z"/></g>
<g><path style="opacity:0.016" fill="#fefffe" d="M 470.5,341.5 C 471.833,342.167 471.833,342.167 470.5,341.5 Z"/></g>
<g><path style="opacity:0.016" fill="#fefffe" d="M 469.5,342.5 C 469.833,342.5 470.167,342.5 470.5,342.5C 470.315,343.17 469.981,343.17 469.5,342.5 Z"/></g>
<g><path style="opacity:0.012" fill="#fefffe" d="M 468.5,343.5 C 468.833,343.5 469.167,343.5 469.5,343.5C 469.315,344.17 468.981,344.17 468.5,343.5 Z"/></g>
<g><path style="opacity:0.012" fill="#fefffe" d="M 463.5,349.5 C 464.833,350.167 464.833,350.167 463.5,349.5 Z"/></g>
<g><path style="opacity:0.012" fill="#fefffe" d="M 462.5,350.5 C 462.833,350.5 463.167,350.5 463.5,350.5C 463.315,351.17 462.981,351.17 462.5,350.5 Z"/></g>
<g><path style="opacity:0.016" fill="#fefffe" d="M 461.5,351.5 C 461.833,351.5 462.167,351.5 462.5,351.5C 462.315,352.17 461.981,352.17 461.5,351.5 Z"/></g>
<g><path style="opacity:0.016" fill="#fefffe" d="M 460.5,352.5 C 460.833,352.5 461.167,352.5 461.5,352.5C 461.315,353.17 460.981,353.17 460.5,352.5 Z"/></g>
<g><path style="opacity:0.016" fill="#fefffe" d="M 459.5,353.5 C 459.833,353.5 460.167,353.5 460.5,353.5C 460.315,354.17 459.981,354.17 459.5,353.5 Z"/></g>
<g><path style="opacity:0.016" fill="#fefffe" d="M 458.5,354.5 C 458.833,354.5 459.167,354.5 459.5,354.5C 459.315,355.17 458.981,355.17 458.5,354.5 Z"/></g>
<g><path style="opacity:0.016" fill="#fefffe" d="M 457.5,355.5 C 457.833,355.5 458.167,355.5 458.5,355.5C 458.315,356.17 457.981,356.17 457.5,355.5 Z"/></g>
<g><path style="opacity:0.016" fill="#fefffe" d="M 456.5,356.5 C 456.833,356.5 457.167,356.5 457.5,356.5C 457.315,357.17 456.981,357.17 456.5,356.5 Z"/></g>
<g><path style="opacity:0.016" fill="#fefffe" d="M 455.5,357.5 C 455.833,357.5 456.167,357.5 456.5,357.5C 456.315,358.17 455.981,358.17 455.5,357.5 Z"/></g>
<g><path style="opacity:0.016" fill="#fefffe" d="M 454.5,358.5 C 454.833,358.5 455.167,358.5 455.5,358.5C 455.315,359.17 454.981,359.17 454.5,358.5 Z"/></g>
<g><path style="opacity:0.012" fill="#fefffe" d="M 453.5,359.5 C 453.833,359.5 454.167,359.5 454.5,359.5C 454.315,360.17 453.981,360.17 453.5,359.5 Z"/></g>
<g><path style="opacity:0.012" fill="#fefffe" d="M 452.5,360.5 C 452.833,360.5 453.167,360.5 453.5,360.5C 453.315,361.17 452.981,361.17 452.5,360.5 Z"/></g>
<g><path style="opacity:0.012" fill="#fefffe" d="M 451.5,364.5 C 452.833,365.167 452.833,365.167 451.5,364.5 Z"/></g>
<g><path style="opacity:0.008" fill="#fefffe" d="M 454.5,369.5 C 454.167,369.5 453.833,369.5 453.5,369.5C 453.833,366.833 454.167,366.833 454.5,369.5 Z"/></g>
<g><path style="opacity:0.012" fill="#fefffe" d="M 454.5,369.5 C 455.833,370.167 455.833,370.167 454.5,369.5 Z"/></g>
<g><path style="opacity:0.012" fill="#fefffe" d="M 461.5,381.5 C 462.833,382.167 462.833,382.167 461.5,381.5 Z"/></g>
<g><path style="opacity:0.012" fill="#fefffe" d="M 88.5,384.5 C 89.8333,385.167 89.8333,385.167 88.5,384.5 Z"/></g>
<g><path style="opacity:0.008" fill="#fefffe" d="M 464.5,386.5 C 464.167,386.5 463.833,386.5 463.5,386.5C 463.833,383.833 464.167,383.833 464.5,386.5 Z"/></g>
<g><path style="opacity:0.012" fill="#fefffe" d="M 16.5,387.5 C 15.475,387.103 15.3083,386.437 16,385.5C 16.4643,386.094 16.631,386.761 16.5,387.5 Z"/></g>
<g><path style="opacity:0.012" fill="#fefffe" d="M 87.5,385.5 C 87.8333,385.5 88.1667,385.5 88.5,385.5C 88.3147,386.17 87.9813,386.17 87.5,385.5 Z"/></g>
<g><path style="opacity:0.012" fill="#fefffe" d="M 86.5,386.5 C 86.8333,386.5 87.1667,386.5 87.5,386.5C 87.3147,387.17 86.9813,387.17 86.5,386.5 Z"/></g>
<g><path style="opacity:0.016" fill="#fefffe" d="M 94.5,386.5 C 94.5,386.833 94.5,387.167 94.5,387.5C 93.8299,387.019 93.8299,386.685 94.5,386.5 Z"/></g>
<g><path style="opacity:0.012" fill="#fefffe" d="M 464.5,386.5 C 465.833,387.167 465.833,387.167 464.5,386.5 Z"/></g>
<g><path style="opacity:0.012" fill="#fefffe" d="M 85.5,387.5 C 85.8333,387.5 86.1667,387.5 86.5,387.5C 86.3147,388.17 85.9813,388.17 85.5,387.5 Z"/></g>
<g><path style="opacity:0.008" fill="#fefffe" d="M 94.5,387.5 C 95.8333,388.167 95.8333,388.167 94.5,387.5 Z"/></g>
<g><path style="opacity:0.011" fill="#fefffe" d="M 14.5,388.5 C 15.6433,391.976 15.8099,395.642 15,399.5C 14.5014,395.848 14.3347,392.182 14.5,388.5 Z"/></g>
<g><path style="opacity:0.012" fill="#fefffe" d="M 84.5,388.5 C 84.8333,388.5 85.1667,388.5 85.5,388.5C 85.3147,389.17 84.9813,389.17 84.5,388.5 Z"/></g>
<g><path style="opacity:0.012" fill="#fefffe" d="M 83.5,389.5 C 83.8333,389.5 84.1667,389.5 84.5,389.5C 84.3147,390.17 83.9813,390.17 83.5,389.5 Z"/></g>
<g><path style="opacity:0.012" fill="#fefffe" d="M 82.5,390.5 C 82.8333,390.5 83.1667,390.5 83.5,390.5C 83.3147,391.17 82.9813,391.17 82.5,390.5 Z"/></g>
<g><path style="opacity:0.008" fill="#fefffe" d="M 81.5,391.5 C 81.8333,391.5 82.1667,391.5 82.5,391.5C 82.3147,392.17 81.9813,392.17 81.5,391.5 Z"/></g>
<g><path style="opacity:0.008" fill="#fefffe" d="M 80.5,392.5 C 80.8333,392.5 81.1667,392.5 81.5,392.5C 81.3147,393.17 80.9813,393.17 80.5,392.5 Z"/></g>
<g><path style="opacity:0.008" fill="#fefffe" d="M 79.5,393.5 C 79.8333,393.5 80.1667,393.5 80.5,393.5C 80.3147,394.17 79.9813,394.17 79.5,393.5 Z"/></g>
<g><path style="opacity:0.008" fill="#fefffe" d="M 468.5,396.5 C 468.351,395.448 468.517,394.448 469,393.5C 469.74,394.749 469.573,395.749 468.5,396.5 Z"/></g>
<g><path style="opacity:0.008" fill="#fefffe" d="M 78.5,394.5 C 78.8333,394.5 79.1667,394.5 79.5,394.5C 79.3147,395.17 78.9813,395.17 78.5,394.5 Z"/></g>
<g><path style="opacity:0.004" fill="#fefffe" d="M 77.5,395.5 C 77.8333,395.5 78.1667,395.5 78.5,395.5C 77.2427,398.427 75.2427,400.761 72.5,402.5C 72.5,401.833 72.5,401.167 72.5,400.5C 73.1667,400.5 73.5,400.167 73.5,399.5C 74.1667,399.5 74.5,399.167 74.5,398.5C 75.1667,398.5 75.5,398.167 75.5,397.5C 76.1667,397.5 76.5,397.167 76.5,396.5C 77.1667,396.5 77.5,396.167 77.5,395.5 Z"/></g>
<g><path style="opacity:0.012" fill="#fefffe" d="M 405.5,396.5 C 406.833,397.167 406.833,397.167 405.5,396.5 Z"/></g>
<g><path style="opacity:0.012" fill="#fefffe" d="M 110.5,397.5 C 109.833,398.167 109.833,398.167 110.5,397.5 Z"/></g>
<g><path style="opacity:0.016" fill="#fefffe" d="M 403.5,397.5 C 404.833,398.167 404.833,398.167 403.5,397.5 Z"/></g>
<g><path style="opacity:0.01" fill="#fefffe" d="M 469.5,397.5 C 470.645,401.311 470.812,405.311 470,409.5C 469.501,405.514 469.334,401.514 469.5,397.5 Z"/></g>
<g><path style="opacity:0.008" fill="#fefffe" d="M 401.5,399.5 C 401.5,399.167 401.5,398.833 401.5,398.5C 402.167,398.5 402.833,398.5 403.5,398.5C 403.158,399.338 402.492,399.672 401.5,399.5 Z"/></g>
<g><path style="opacity:0.012" fill="#fefffe" d="M 401.5,399.5 C 400.833,400.167 400.833,400.167 401.5,399.5 Z"/></g>
<g><path style="opacity:0.012" fill="#fefffe" d="M 115.5,400.5 C 114.833,401.167 114.833,401.167 115.5,400.5 Z"/></g>
<g><path style="opacity:0.016" fill="#fefffe" d="M 398.5,400.5 C 399.833,401.167 399.833,401.167 398.5,400.5 Z"/></g>
<g><path style="opacity:0.016" fill="#fefffe" d="M 410.5,400.5 C 409.833,401.167 409.833,401.167 410.5,400.5 Z"/></g>
<g><path style="opacity:0.008" fill="#fefffe" d="M 396.5,402.5 C 396.5,402.167 396.5,401.833 396.5,401.5C 397.167,401.5 397.833,401.5 398.5,401.5C 398.158,402.338 397.492,402.672 396.5,402.5 Z"/></g>
<g><path style="opacity:0.01" fill="#fefffe" d="M 119.5,402.5 C 119.5,402.833 119.5,403.167 119.5,403.5C 116.833,403.167 116.833,402.833 119.5,402.5 Z"/></g>
<g><path style="opacity:0.008" fill="#fefffe" d="M 394.5,403.5 C 394.5,403.167 394.5,402.833 394.5,402.5C 395.167,402.5 395.833,402.5 396.5,402.5C 396.158,403.338 395.492,403.672 394.5,403.5 Z"/></g>
<g><path style="opacity:0.008" fill="#fefffe" d="M 410.5,402.5 C 411.833,403.167 411.833,403.167 410.5,402.5 Z"/></g>
<g><path style="opacity:0.012" fill="#fefffe" d="M 119.5,403.5 C 120.833,404.167 120.833,404.167 119.5,403.5 Z"/></g>
<g><path style="opacity:0.012" fill="#fefffe" d="M 394.5,403.5 C 393.833,404.167 393.833,404.167 394.5,403.5 Z"/></g>
<g><path style="opacity:0.012" fill="#fefffe" d="M 391.5,404.5 C 392.833,405.167 392.833,405.167 391.5,404.5 Z"/></g>
<g><path style="opacity:0.012" fill="#fefffe" d="M 389.5,405.5 C 390.833,406.167 390.833,406.167 389.5,405.5 Z"/></g>
<g><path style="opacity:0.016" fill="#fefffe" d="M 413.5,405.5 C 412.833,406.167 412.833,406.167 413.5,405.5 Z"/></g>
<g><path style="opacity:0.008" fill="#fefffe" d="M 387.5,407.5 C 387.5,407.167 387.5,406.833 387.5,406.5C 388.167,406.5 388.833,406.5 389.5,406.5C 389.158,407.338 388.492,407.672 387.5,407.5 Z"/></g>
<g><path style="opacity:0.012" fill="#fefffe" d="M 19.5,407.5 C 18.8333,408.167 18.8333,408.167 19.5,407.5 Z"/></g>
<g><path style="opacity:0.008" fill="#fefffe" d="M 385.5,408.5 C 385.5,408.167 385.5,407.833 385.5,407.5C 386.167,407.5 386.833,407.5 387.5,407.5C 387.158,408.338 386.492,408.672 385.5,408.5 Z"/></g>
<g><path style="opacity:0.012" fill="#fefffe" d="M 413.5,407.5 C 414.833,408.167 414.833,408.167 413.5,407.5 Z"/></g>
<g><path style="opacity:0.008" fill="#fefffe" d="M 383.5,409.5 C 383.5,409.167 383.5,408.833 383.5,408.5C 384.167,408.5 384.833,408.5 385.5,408.5C 385.158,409.338 384.492,409.672 383.5,409.5 Z"/></g>
<g><path style="opacity:0.008" fill="#fefffe" d="M 381.5,410.5 C 381.5,410.167 381.5,409.833 381.5,409.5C 382.167,409.5 382.833,409.5 383.5,409.5C 383.158,410.338 382.492,410.672 381.5,410.5 Z"/></g>
<g><path style="opacity:0.008" fill="#fefffe" d="M 379.5,411.5 C 379.5,411.167 379.5,410.833 379.5,410.5C 380.167,410.5 380.833,410.5 381.5,410.5C 381.158,411.338 380.492,411.672 379.5,411.5 Z"/></g>
<g><path style="opacity:0.016" fill="#fefffe" d="M 416.5,410.5 C 415.833,411.167 415.833,411.167 416.5,410.5 Z"/></g>
<g><path style="opacity:0.01" fill="#fefffe" d="M 468.5,412.5 C 468.369,411.761 468.536,411.094 469,410.5C 469.692,411.437 469.525,412.103 468.5,412.5 Z"/></g>
<g><path style="opacity:0.008" fill="#fefffe" d="M 377.5,412.5 C 377.5,412.167 377.5,411.833 377.5,411.5C 378.167,411.5 378.833,411.5 379.5,411.5C 379.158,412.338 378.492,412.672 377.5,412.5 Z"/></g>
<g><path style="opacity:0.008" fill="#fefffe" d="M 375.5,413.5 C 375.5,413.167 375.5,412.833 375.5,412.5C 376.167,412.5 376.833,412.5 377.5,412.5C 377.158,413.338 376.492,413.672 375.5,413.5 Z"/></g>
<g><path style="opacity:0.008" fill="#fefffe" d="M 467.5,412.5 C 467.833,412.5 468.167,412.5 468.5,412.5C 468.167,415.167 467.833,415.167 467.5,412.5 Z"/></g>
<g><path style="opacity:0.008" fill="#fefffe" d="M 373.5,413.5 C 374.167,413.5 374.833,413.5 375.5,413.5C 374.833,414.833 374.167,414.833 373.5,413.5 Z"/></g>
<g><path style="opacity:0.012" fill="#fefffe" d="M 371.5,414.5 C 372.833,415.167 372.833,415.167 371.5,414.5 Z"/></g>
<g><path style="opacity:0.012" fill="#fefffe" d="M 57.5,415.5 C 58.8333,416.167 58.8333,416.167 57.5,415.5 Z"/></g>
<g><path style="opacity:0.008" fill="#fefffe" d="M 144.5,415.5 C 144.5,415.833 144.5,416.167 144.5,416.5C 141.833,416.167 141.833,415.833 144.5,415.5 Z"/></g>
<g><path style="opacity:0.008" fill="#fefffe" d="M 368.5,416.5 C 368.5,416.167 368.5,415.833 368.5,415.5C 371.167,415.833 371.167,416.167 368.5,416.5 Z"/></g>
<g><path style="opacity:0.012" fill="#fefffe" d="M 466.5,415.5 C 467.833,416.167 467.833,416.167 466.5,415.5 Z"/></g>
<g><path style="opacity:0.012" fill="#fefffe" d="M 56.5,416.5 C 56.8333,416.5 57.1667,416.5 57.5,416.5C 57.3147,417.17 56.9813,417.17 56.5,416.5 Z"/></g>
<g><path style="opacity:0.008" fill="#fefffe" d="M 144.5,416.5 C 145.239,416.369 145.906,416.536 146.5,417C 145.563,417.692 144.897,417.525 144.5,416.5 Z"/></g>
<g><path style="opacity:0.01" fill="#fefffe" d="M 366.5,417.5 C 366.5,417.167 366.5,416.833 366.5,416.5C 367.167,416.5 367.833,416.5 368.5,416.5C 368.158,417.338 367.492,417.672 366.5,417.5 Z"/></g>
<g><path style="opacity:0.006" fill="#fefffe" d="M 465.5,416.5 C 465.833,416.5 466.167,416.5 466.5,416.5C 466.672,417.492 466.338,418.158 465.5,418.5C 465.5,417.833 465.5,417.167 465.5,416.5 Z"/></g>
<g><path style="opacity:0.012" fill="#fefffe" d="M 29.5,417.5 C 28.8333,418.167 28.8333,418.167 29.5,417.5 Z"/></g>
<g><path style="opacity:0.008" fill="#fefffe" d="M 54.5,418.5 C 54.5,418.167 54.5,417.833 54.5,417.5C 55.1667,417.5 55.8333,417.5 56.5,417.5C 56.1583,418.338 55.4916,418.672 54.5,418.5 Z"/></g>
<g><path style="opacity:0.008" fill="#fefffe" d="M 366.5,417.5 C 366.103,418.525 365.437,418.692 364.5,418C 365.094,417.536 365.761,417.369 366.5,417.5 Z"/></g>
<g><path style="opacity:0.012" fill="#fefffe" d="M 31.5,418.5 C 30.8333,419.167 30.8333,419.167 31.5,418.5 Z"/></g>
<g><path style="opacity:0.01" fill="#fefffe" d="M 52.5,419.5 C 52.5,419.167 52.5,418.833 52.5,418.5C 53.1667,418.5 53.8333,418.5 54.5,418.5C 54.1583,419.338 53.4916,419.672 52.5,419.5 Z"/></g>
<g><path style="opacity:0.01" fill="#fefffe" d="M 151.5,418.5 C 151.5,418.833 151.5,419.167 151.5,419.5C 148.833,419.167 148.833,418.833 151.5,418.5 Z"/></g>
<g><path style="opacity:0.01" fill="#fefffe" d="M 361.5,419.5 C 361.5,419.167 361.5,418.833 361.5,418.5C 364.167,418.833 364.167,419.167 361.5,419.5 Z"/></g>
<g><path style="opacity:0.012" fill="#fefffe" d="M 464.5,418.5 C 464.833,418.5 465.167,418.5 465.5,418.5C 465.315,419.17 464.981,419.17 464.5,418.5 Z"/></g>
<g><path style="opacity:0.01" fill="#fefffe" d="M 34.5,419.5 C 34.5,419.833 34.5,420.167 34.5,420.5C 31.8333,420.167 31.8333,419.833 34.5,419.5 Z"/></g>
<g><path style="opacity:0.008" fill="#fefffe" d="M 52.5,419.5 C 52.1034,420.525 51.4368,420.692 50.5,420C 51.0944,419.536 51.7611,419.369 52.5,419.5 Z"/></g>
<g><path style="opacity:0.008" fill="#fefffe" d="M 151.5,419.5 C 152.239,419.369 152.906,419.536 153.5,420C 152.563,420.692 151.897,420.525 151.5,419.5 Z"/></g>
<g><path style="opacity:0.008" fill="#fefffe" d="M 359.5,419.5 C 360.167,419.5 360.833,419.5 361.5,419.5C 360.833,420.833 360.167,420.833 359.5,419.5 Z"/></g>
<g><path style="opacity:0.004" fill="#fefffe" d="M 422.5,419.5 C 422.5,420.167 422.5,420.833 422.5,421.5C 421.167,420.833 421.167,420.167 422.5,419.5 Z"/></g>
<g><path style="opacity:0.012" fill="#fefffe" d="M 463.5,419.5 C 463.833,419.5 464.167,419.5 464.5,419.5C 464.315,420.17 463.981,420.17 463.5,419.5 Z"/></g>
<g><path style="opacity:0.009" fill="#fefffe" d="M 34.5,420.5 C 35.8734,420.343 37.2068,420.51 38.5,421C 36.9343,421.765 35.6009,421.598 34.5,420.5 Z"/></g>
<g><path style="opacity:0.008" fill="#fefffe" d="M 45.5,420.5 C 46.8734,420.343 48.2068,420.51 49.5,421C 47.9343,421.765 46.6009,421.598 45.5,420.5 Z"/></g>
<g><path style="opacity:0.01" fill="#fefffe" d="M 356.5,421.5 C 356.5,421.167 356.5,420.833 356.5,420.5C 359.167,420.833 359.167,421.167 356.5,421.5 Z"/></g>
<g><path style="opacity:0.008" fill="#fefffe" d="M 462.5,420.5 C 462.833,420.5 463.167,420.5 463.5,420.5C 463.315,421.17 462.981,421.17 462.5,420.5 Z"/></g>
<g><path style="opacity:0.004" fill="#fefffe" d="M 41.5,422.5 C 41.8966,421.475 42.5632,421.308 43.5,422C 42.9056,422.464 42.2389,422.631 41.5,422.5 Z"/></g>
<g><path style="opacity:0.008" fill="#fefffe" d="M 356.5,421.5 C 356.103,422.525 355.437,422.692 354.5,422C 355.094,421.536 355.761,421.369 356.5,421.5 Z"/></g>
<g><path style="opacity:0.008" fill="#fefffe" d="M 422.5,421.5 C 423.167,421.5 423.5,421.833 423.5,422.5C 423.167,422.167 422.833,421.833 422.5,421.5 Z"/></g>
<g><path style="opacity:0.004" fill="#fefffe" d="M 461.5,421.5 C 461.833,421.5 462.167,421.5 462.5,421.5C 462.315,422.17 461.981,422.17 461.5,421.5 Z"/></g>
<g><path style="opacity:0.01" fill="#fefffe" d="M 161.5,422.5 C 161.103,423.525 160.437,423.692 159.5,423C 160.094,422.536 160.761,422.369 161.5,422.5 Z"/></g>
<g><path style="opacity:0.01" fill="#fefffe" d="M 351.5,422.5 C 352.239,422.369 352.906,422.536 353.5,423C 352.563,423.692 351.897,423.525 351.5,422.5 Z"/></g>
<g><path style="opacity:0.008" fill="#fefffe" d="M 423.5,422.5 C 424.167,422.5 424.5,422.833 424.5,423.5C 424.167,423.167 423.833,422.833 423.5,422.5 Z"/></g>
<g><path style="opacity:0.004" fill="#fefffe" d="M 460.5,422.5 C 460.833,422.5 461.167,422.5 461.5,422.5C 461.315,423.17 460.981,423.17 460.5,422.5 Z"/></g>
<g><path style="opacity:0.01" fill="#fefffe" d="M 164.5,423.5 C 164.103,424.525 163.437,424.692 162.5,424C 163.094,423.536 163.761,423.369 164.5,423.5 Z"/></g>
<g><path style="opacity:0.01" fill="#fefffe" d="M 348.5,424.5 C 348.5,424.167 348.5,423.833 348.5,423.5C 351.167,423.833 351.167,424.167 348.5,424.5 Z"/></g>
<g><path style="opacity:0.004" fill="#fefffe" d="M 424.5,423.5 C 425.833,424.167 425.833,424.167 424.5,423.5 Z"/></g>
<g><path style="opacity:0.012" fill="#fefffe" d="M 459.5,423.5 C 459.833,423.5 460.167,423.5 460.5,423.5C 460.315,424.17 459.981,424.17 459.5,423.5 Z"/></g>
<g><path style="opacity:0.008" fill="#fefffe" d="M 345.5,425.5 C 345.5,425.167 345.5,424.833 345.5,424.5C 346.5,424.5 347.5,424.5 348.5,424.5C 347.791,425.404 346.791,425.737 345.5,425.5 Z"/></g>
<g><path style="opacity:0.016" fill="#fefffe" d="M 458.5,424.5 C 458.833,424.5 459.167,424.5 459.5,424.5C 459.315,425.17 458.981,425.17 458.5,424.5 Z"/></g>
<g><path style="opacity:0.007" fill="#fefffe" d="M 342.5,426.5 C 342.5,426.167 342.5,425.833 342.5,425.5C 343.5,425.5 344.5,425.5 345.5,425.5C 344.791,426.404 343.791,426.737 342.5,426.5 Z"/></g>
<g><path style="opacity:0.008" fill="#fefffe" d="M 458.5,425.5 C 457.833,426.167 457.833,426.167 458.5,425.5 Z"/></g>
<g><path style="opacity:0.009" fill="#fefffe" d="M 173.5,426.5 C 172.749,427.573 171.749,427.74 170.5,427C 171.448,426.517 172.448,426.351 173.5,426.5 Z"/></g>
<g><path style="opacity:0.008" fill="#fefffe" d="M 339.5,427.5 C 339.5,427.167 339.5,426.833 339.5,426.5C 340.5,426.5 341.5,426.5 342.5,426.5C 341.791,427.404 340.791,427.737 339.5,427.5 Z"/></g>
<g><path style="opacity:0.012" fill="#fefffe" d="M 455.5,426.5 C 456.833,427.167 456.833,427.167 455.5,426.5 Z"/></g>
<g><path style="opacity:0.012" fill="#fefffe" d="M 176.5,427.5 C 176.103,428.525 175.437,428.692 174.5,428C 175.094,427.536 175.761,427.369 176.5,427.5 Z"/></g>
<g><path style="opacity:0.008" fill="#fefffe" d="M 336.5,427.5 C 337.5,427.5 338.5,427.5 339.5,427.5C 338.5,428.833 337.5,428.833 336.5,427.5 Z"/></g>
<g><path style="opacity:0.008" fill="#fefffe" d="M 453.5,428.5 C 453.5,428.167 453.5,427.833 453.5,427.5C 454.167,427.5 454.833,427.5 455.5,427.5C 455.158,428.338 454.492,428.672 453.5,428.5 Z"/></g>
<g><path style="opacity:0.01" fill="#fefffe" d="M 333.5,429.5 C 333.897,428.475 334.563,428.308 335.5,429C 334.906,429.464 334.239,429.631 333.5,429.5 Z"/></g>
<g><path style="opacity:0.01" fill="#fefffe" d="M 434.5,428.5 C 434.103,429.525 433.437,429.692 432.5,429C 433.094,428.536 433.761,428.369 434.5,428.5 Z"/></g>
<g><path style="opacity:0.008" fill="#fefffe" d="M 453.5,428.5 C 453.103,429.525 452.437,429.692 451.5,429C 452.094,428.536 452.761,428.369 453.5,428.5 Z"/></g>
<g><path style="opacity:0.009" fill="#fefffe" d="M 183.5,429.5 C 182.749,430.573 181.749,430.74 180.5,430C 181.448,429.517 182.448,429.351 183.5,429.5 Z"/></g>
<g><path style="opacity:0.009" fill="#fefffe" d="M 329.5,430.5 C 329.5,430.167 329.5,429.833 329.5,429.5C 333.5,429.833 333.5,430.167 329.5,430.5 Z"/></g>
<g><path style="opacity:0.01" fill="#fefffe" d="M 438.5,429.5 C 437.749,430.573 436.749,430.74 435.5,430C 436.448,429.517 437.448,429.351 438.5,429.5 Z"/></g>
<g><path style="opacity:0.009" fill="#fefffe" d="M 447.5,430.5 C 448.251,429.427 449.251,429.26 450.5,430C 449.552,430.483 448.552,430.649 447.5,430.5 Z"/></g>
<g><path style="opacity:0.01" fill="#fefffe" d="M 187.5,430.5 C 186.749,431.573 185.749,431.74 184.5,431C 185.448,430.517 186.448,430.351 187.5,430.5 Z"/></g>
<g><path style="opacity:0.009" fill="#fefffe" d="M 329.5,430.5 C 328.749,431.573 327.749,431.74 326.5,431C 327.448,430.517 328.448,430.351 329.5,430.5 Z"/></g>
<g><path style="opacity:0.005" fill="#fefffe" d="M 439.5,431.5 C 441.288,430.378 443.288,430.211 445.5,431C 443.527,431.495 441.527,431.662 439.5,431.5 Z"/></g>
<g><path style="opacity:0.008" fill="#fefffe" d="M 321.5,432.5 C 321.5,432.167 321.5,431.833 321.5,431.5C 326.833,431.833 326.833,432.167 321.5,432.5 Z"/></g>
<g><path style="opacity:0.009" fill="#fefffe" d="M 195.5,432.5 C 194.399,433.598 193.066,433.765 191.5,433C 192.793,432.51 194.127,432.343 195.5,432.5 Z"/></g>
<g><path style="opacity:0.008" fill="#fefffe" d="M 317.5,433.5 C 317.5,433.167 317.5,432.833 317.5,432.5C 318.833,432.5 320.167,432.5 321.5,432.5C 320.432,433.434 319.099,433.768 317.5,433.5 Z"/></g>
<g><path style="opacity:0.008" fill="#fefffe" d="M 200.5,433.5 C 199.399,434.598 198.066,434.765 196.5,434C 197.793,433.51 199.127,433.343 200.5,433.5 Z"/></g>
<g><path style="opacity:0.009" fill="#fefffe" d="M 317.5,433.5 C 316.399,434.598 315.066,434.765 313.5,434C 314.793,433.51 316.127,433.343 317.5,433.5 Z"/></g>
<g><path style="opacity:0.009" fill="#fefffe" d="M 308.5,435.5 C 309.601,434.402 310.934,434.235 312.5,435C 311.207,435.49 309.873,435.657 308.5,435.5 Z"/></g>
<g><path style="opacity:0.008" fill="#fefffe" d="M 302.5,436.5 C 302.5,436.167 302.5,435.833 302.5,435.5C 309.167,435.833 309.167,436.167 302.5,436.5 Z"/></g>
<g><path style="opacity:0.009" fill="#fefffe" d="M 204.5,436.5 C 205.643,439.976 205.81,443.642 205,447.5C 204.501,443.848 204.335,440.182 204.5,436.5 Z"/></g>
<g><path style="opacity:0.008" fill="#fefffe" d="M 296.5,436.5 C 298.5,436.5 300.5,436.5 302.5,436.5C 300.5,437.833 298.5,437.833 296.5,436.5 Z"/></g>
<g><path style="opacity:0.008" fill="#fefffe" d="M 288.5,437.5 C 290.857,437.337 293.19,437.503 295.5,438C 292.961,438.796 290.628,438.629 288.5,437.5 Z"/></g>
<g><path style="opacity:0.01" fill="#fefffe" d="M 279.5,439.5 C 281.966,438.366 284.633,438.199 287.5,439C 284.854,439.497 282.187,439.664 279.5,439.5 Z"/></g>
<g><path style="opacity:0.011" fill="#fefffe" d="M 259.5,439.5 C 265.509,439.334 271.509,439.501 277.5,440C 271.843,440.499 266.176,440.666 260.5,440.5C 260.66,442.199 260.494,443.866 260,445.5C 259.505,443.527 259.338,441.527 259.5,439.5 Z"/></g>
<g><path style="opacity:0.009" fill="#fefffe" d="M 260.5,459.5 C 260.335,455.818 260.501,452.152 261,448.5C 261.81,452.358 261.643,456.024 260.5,459.5 Z"/></g>
<g><path style="opacity:0.009" fill="#fefffe" d="M 205.5,449.5 C 206.643,452.976 206.81,456.642 206,460.5C 205.501,456.848 205.335,453.182 205.5,449.5 Z"/></g>
<g><path style="opacity:0.009" fill="#fefffe" d="M 261.5,460.5 C 262.643,463.976 262.81,467.642 262,471.5C 261.501,467.848 261.335,464.182 261.5,460.5 Z"/></g>
<g><path style="opacity:0.009" fill="#fefffe" d="M 207.5,461.5 C 207.665,465.182 207.499,468.848 207,472.5C 206.19,468.642 206.357,464.976 207.5,461.5 Z"/></g>
<g><path style="opacity:0.005" fill="#fefffe" d="M 262.5,473.5 C 263.629,475.628 263.796,477.961 263,480.5C 262.503,478.19 262.337,475.857 262.5,473.5 Z"/></g>
<g><path style="opacity:0.009" fill="#fefffe" d="M 207.5,474.5 C 208.634,476.966 208.801,479.633 208,482.5C 207.503,479.854 207.336,477.187 207.5,474.5 Z"/></g>
<g><path style="opacity:0.01" fill="#fefffe" d="M 261.5,481.5 C 262.573,482.251 262.74,483.251 262,484.5C 261.517,483.552 261.351,482.552 261.5,481.5 Z"/></g>
<g><path style="opacity:0.01" fill="#fefffe" d="M 208.5,483.5 C 209.525,483.897 209.692,484.563 209,485.5C 208.536,484.906 208.369,484.239 208.5,483.5 Z"/></g>
<g><path style="opacity:0.01" fill="#fefffe" d="M 260.5,485.5 C 261.833,486.167 261.833,486.833 260.5,487.5C 260.5,486.833 260.5,486.167 260.5,485.5 Z"/></g>
<g><path style="opacity:0.008" fill="#fefffe" d="M 259.5,487.5 C 259.833,487.5 260.167,487.5 260.5,487.5C 260.672,488.492 260.338,489.158 259.5,489.5C 259.5,488.833 259.5,488.167 259.5,487.5 Z"/></g>
<g><path style="opacity:0.006" fill="#fefffe" d="M 258.5,489.5 C 258.833,489.5 259.167,489.5 259.5,489.5C 259.672,490.492 259.338,491.158 258.5,491.5C 258.5,490.833 258.5,490.167 258.5,489.5 Z"/></g>
<g><path style="opacity:0.012" fill="#fefffe" d="M 257.5,491.5 C 257.833,491.5 258.167,491.5 258.5,491.5C 258.315,492.17 257.981,492.17 257.5,491.5 Z"/></g>
<g><path style="opacity:0.008" fill="#fefffe" d="M 253.5,496.5 C 254.833,497.167 254.833,497.167 253.5,496.5 Z"/></g>
<g><path style="opacity:0.012" fill="#fefffe" d="M 218.5,497.5 C 218.5,497.833 218.5,498.167 218.5,498.5C 217.83,498.019 217.83,497.685 218.5,497.5 Z"/></g>
<g><path style="opacity:0.004" fill="#fefffe" d="M 253.5,497.5 C 252.833,498.167 252.833,498.167 253.5,497.5 Z"/></g>
<g><path style="opacity:0.008" fill="#fefffe" d="M 218.5,498.5 C 219.833,499.167 219.833,499.167 218.5,498.5 Z"/></g>
<g><path style="opacity:0.012" fill="#fefffe" d="M 250.5,498.5 C 251.833,499.167 251.833,499.167 250.5,498.5 Z"/></g>
<g><path style="opacity:0.012" fill="#fefffe" d="M 249.5,499.5 C 249.833,499.5 250.167,499.5 250.5,499.5C 250.315,500.17 249.981,500.17 249.5,499.5 Z"/></g>
<g><path style="opacity:0.008" fill="#fefffe" d="M 247.5,501.5 C 247.5,501.167 247.5,500.833 247.5,500.5C 248.167,500.5 248.833,500.5 249.5,500.5C 249.158,501.338 248.492,501.672 247.5,501.5 Z"/></g>
<g><path style="opacity:0.008" fill="#fefffe" d="M 225.5,501.5 C 225.103,502.525 224.437,502.692 223.5,502C 224.094,501.536 224.761,501.369 225.5,501.5 Z"/></g>
<g><path style="opacity:0.01" fill="#fefffe" d="M 245.5,501.5 C 246.167,501.5 246.833,501.5 247.5,501.5C 246.833,502.833 246.167,502.833 245.5,501.5 Z"/></g>
</svg>
